<svg xmlns="http://www.w3.org/2000/svg" viewBox="0 0 800 280" font-family="system-ui,-apple-system,sans-serif">
<rect width="800" height="280" fill="#0d1117" rx="12"/>
<text x="400.0" y="28" text-anchor="middle" fill="#e6edf3" font-size="16" font-weight="600">Jitter &amp; Packet Loss</text>
<text x="400.0" y="46" text-anchor="middle" fill="#7d8590" font-size="11">Standard deviation of RTT | Loss rate per packet size</text>
<line x1="65" y1="210.0" x2="770" y2="210.0" stroke="#21262d"/>
<text x="57" y="214.0" text-anchor="end" fill="#7d8590" font-size="11">0.00ms</text>
<line x1="65" y1="192.1920955882353" x2="770" y2="192.1920955882353" stroke="#21262d"/>
<text x="57" y="196.1920955882353" text-anchor="end" fill="#7d8590" font-size="11">0.25ms</text>
<line x1="65" y1="174.38419117647058" x2="770" y2="174.38419117647058" stroke="#21262d"/>
<text x="57" y="178.38419117647058" text-anchor="end" fill="#7d8590" font-size="11">0.50ms</text>
<line x1="65" y1="156.57628676470588" x2="770" y2="156.57628676470588" stroke="#21262d"/>
<text x="57" y="160.57628676470588" text-anchor="end" fill="#7d8590" font-size="11">0.75ms</text>
<line x1="65" y1="138.76838235294116" x2="770" y2="138.76838235294116" stroke="#21262d"/>
<text x="57" y="142.76838235294116" text-anchor="end" fill="#7d8590" font-size="11">1.00ms</text>
<text x="14" y="132.5" text-anchor="middle" fill="#7d8590" font-size="11" transform="rotate(-90 14 132.5)">Jitter (ms)</text>
<rect x="100.25" y="171.53492647058823" width="70.5" height="38.46507352941177" fill="#a78bfa" opacity="0.8" rx="3"/>
<text x="135.5" y="165.53492647058823" text-anchor="middle" fill="#c4b5fd" font-size="10" font-weight="500">0.54ms</text>
<text x="135.5" y="230" text-anchor="middle" fill="#c9d1d9" font-size="12" font-weight="500">64B</text>
<rect x="117.5" y="238" width="36" height="18" fill="#22c55e" opacity="0.2" rx="9"/>
<text x="135.5" y="251" text-anchor="middle" fill="#22c55e" font-size="10" font-weight="600">0%</text>
<rect x="241.25" y="133.78216911764707" width="70.5" height="76.21783088235293" fill="#a78bfa" opacity="0.8" rx="3"/>
<text x="276.5" y="127.78216911764707" text-anchor="middle" fill="#c4b5fd" font-size="10" font-weight="500">1.07ms</text>
<text x="276.5" y="230" text-anchor="middle" fill="#c9d1d9" font-size="12" font-weight="500">256B</text>
<rect x="258.5" y="238" width="36" height="18" fill="#22c55e" opacity="0.2" rx="9"/>
<text x="276.5" y="251" text-anchor="middle" fill="#22c55e" font-size="10" font-weight="600">0%</text>
<rect x="382.25" y="113.125" width="70.5" height="96.875" fill="#a78bfa" opacity="0.8" rx="3"/>
<text x="417.5" y="107.125" text-anchor="middle" fill="#c4b5fd" font-size="10" font-weight="500">1.36ms</text>
<text x="417.5" y="230" text-anchor="middle" fill="#c9d1d9" font-size="12" font-weight="500">512B</text>
<rect x="399.5" y="238" width="36" height="18" fill="#22c55e" opacity="0.2" rx="9"/>
<text x="417.5" y="251" text-anchor="middle" fill="#22c55e" font-size="10" font-weight="600">0%</text>
<rect x="523.25" y="179.3704044117647" width="70.5" height="30.629595588235304" fill="#a78bfa" opacity="0.8" rx="3"/>
<text x="558.5" y="173.3704044117647" text-anchor="middle" fill="#c4b5fd" font-size="10" font-weight="500">0.43ms</text>
<text x="558.5" y="230" text-anchor="middle" fill="#c9d1d9" font-size="12" font-weight="500">1024B</text>
<rect x="540.5" y="238" width="36" height="18" fill="#22c55e" opacity="0.2" rx="9"/>
<text x="558.5" y="251" text-anchor="middle" fill="#22c55e" font-size="10" font-weight="600">0%</text>
<rect x="664.25" y="184.35661764705884" width="70.5" height="25.64338235294116" fill="#a78bfa" opacity="0.8" rx="3"/>
<text x="699.5" y="178.35661764705884" text-anchor="middle" fill="#c4b5fd" font-size="10" font-weight="500">0.36ms</text>
<text x="699.5" y="230" text-anchor="middle" fill="#c9d1d9" font-size="12" font-weight="500">1380B</text>
<rect x="681.5" y="238" width="36" height="18" fill="#22c55e" opacity="0.2" rx="9"/>
<text x="699.5" y="251" text-anchor="middle" fill="#22c55e" font-size="10" font-weight="600">0%</text>
<rect x="320.0" y="258" width="10" height="10" fill="#a78bfa" opacity="0.8" rx="2"/>
<text x="334.0" y="267" fill="#c9d1d9" font-size="11">Jitter (stddev)</text>
<text x="440.0" y="267" fill="#7d8590" font-size="11">Badges = packet loss</text>
</svg>