<svg xmlns="http://www.w3.org/2000/svg" viewBox="0 0 800 280" font-family="system-ui,-apple-system,sans-serif">
<rect width="800" height="280" fill="#0d1117" rx="12"/>
<text x="400.0" y="28" text-anchor="middle" fill="#e6edf3" font-size="16" font-weight="600">Jitter &amp; Packet Loss</text>
<text x="400.0" y="46" text-anchor="middle" fill="#7d8590" font-size="11">Standard deviation of RTT | Loss rate per packet size</text>
<line x1="65" y1="210.0" x2="770" y2="210.0" stroke="#21262d"/>
<text x="57" y="214.0" text-anchor="end" fill="#7d8590" font-size="11">0.00ms</text>
<line x1="65" y1="180.10030864197532" x2="770" y2="180.10030864197532" stroke="#21262d"/>
<text x="57" y="184.10030864197532" text-anchor="end" fill="#7d8590" font-size="11">0.25ms</text>
<line x1="65" y1="150.20061728395063" x2="770" y2="150.20061728395063" stroke="#21262d"/>
<text x="57" y="154.20061728395063" text-anchor="end" fill="#7d8590" font-size="11">0.50ms</text>
<line x1="65" y1="120.30092592592594" x2="770" y2="120.30092592592594" stroke="#21262d"/>
<text x="57" y="124.30092592592594" text-anchor="end" fill="#7d8590" font-size="11">0.75ms</text>
<line x1="65" y1="90.40123456790126" x2="770" y2="90.40123456790126" stroke="#21262d"/>
<text x="57" y="94.40123456790126" text-anchor="end" fill="#7d8590" font-size="11">1.00ms</text>
<text x="14" y="132.5" text-anchor="middle" fill="#7d8590" font-size="11" transform="rotate(-90 14 132.5)">Jitter (ms)</text>
<rect x="100.25" y="113.12500000000001" width="70.5" height="96.87499999999999" fill="#a78bfa" opacity="0.8" rx="3"/>
<text x="135.5" y="107.12500000000001" text-anchor="middle" fill="#c4b5fd" font-size="10" font-weight="500">0.81ms</text>
<text x="135.5" y="230" text-anchor="middle" fill="#c9d1d9" font-size="12" font-weight="500">64B</text>
<rect x="117.5" y="238" width="36" height="18" fill="#22c55e" opacity="0.2" rx="9"/>
<text x="135.5" y="251" text-anchor="middle" fill="#22c55e" font-size="10" font-weight="600">0%</text>
<rect x="241.25" y="150.20061728395063" width="70.5" height="59.799382716049365" fill="#a78bfa" opacity="0.8" rx="3"/>
<text x="276.5" y="144.20061728395063" text-anchor="middle" fill="#c4b5fd" font-size="10" font-weight="500">0.50ms</text>
<text x="276.5" y="230" text-anchor="middle" fill="#c9d1d9" font-size="12" font-weight="500">256B</text>
<rect x="258.5" y="238" width="36" height="18" fill="#22c55e" opacity="0.2" rx="9"/>
<text x="276.5" y="251" text-anchor="middle" fill="#22c55e" font-size="10" font-weight="600">0%</text>
<rect x="382.25" y="127.47685185185188" width="70.5" height="82.52314814814812" fill="#a78bfa" opacity="0.8" rx="3"/>
<text x="417.5" y="121.47685185185188" text-anchor="middle" fill="#c4b5fd" font-size="10" font-weight="500">0.69ms</text>
<text x="417.5" y="230" text-anchor="middle" fill="#c9d1d9" font-size="12" font-weight="500">512B</text>
<rect x="399.5" y="238" width="36" height="18" fill="#22c55e" opacity="0.2" rx="9"/>
<text x="417.5" y="251" text-anchor="middle" fill="#22c55e" font-size="10" font-weight="600">0%</text>
<rect x="523.25" y="137.04475308641977" width="70.5" height="72.95524691358023" fill="#a78bfa" opacity="0.8" rx="3"/>
<text x="558.5" y="131.04475308641977" text-anchor="middle" fill="#c4b5fd" font-size="10" font-weight="500">0.61ms</text>
<text x="558.5" y="230" text-anchor="middle" fill="#c9d1d9" font-size="12" font-weight="500">1024B</text>
<rect x="540.5" y="238" width="36" height="18" fill="#22c55e" opacity="0.2" rx="9"/>
<text x="558.5" y="251" text-anchor="middle" fill="#22c55e" font-size="10" font-weight="600">0%</text>
<rect x="664.25" y="153.7885802469136" width="70.5" height="56.2114197530864" fill="#a78bfa" opacity="0.8" rx="3"/>
<text x="699.5" y="147.7885802469136" text-anchor="middle" fill="#c4b5fd" font-size="10" font-weight="500">0.47ms</text>
<text x="699.5" y="230" text-anchor="middle" fill="#c9d1d9" font-size="12" font-weight="500">1380B</text>
<rect x="681.5" y="238" width="36" height="18" fill="#22c55e" opacity="0.2" rx="9"/>
<text x="699.5" y="251" text-anchor="middle" fill="#22c55e" font-size="10" font-weight="600">0%</text>
<rect x="320.0" y="258" width="10" height="10" fill="#a78bfa" opacity="0.8" rx="2"/>
<text x="334.0" y="267" fill="#c9d1d9" font-size="11">Jitter (stddev)</text>
<text x="440.0" y="267" fill="#7d8590" font-size="11">Badges = packet loss</text>
</svg>