<svg xmlns="http://www.w3.org/2000/svg" viewBox="0 0 800 280" font-family="system-ui,-apple-system,sans-serif">
<rect width="800" height="280" fill="#0d1117" rx="12"/>
<text x="400.0" y="28" text-anchor="middle" fill="#e6edf3" font-size="16" font-weight="600">Jitter &amp; Packet Loss</text>
<text x="400.0" y="46" text-anchor="middle" fill="#7d8590" font-size="11">Standard deviation of RTT | Loss rate per packet size</text>
<line x1="65" y1="210.0" x2="770" y2="210.0" stroke="#21262d"/>
<text x="57" y="214.0" text-anchor="end" fill="#7d8590" font-size="11">0.00ms</text>
<line x1="65" y1="187.36565420560748" x2="770" y2="187.36565420560748" stroke="#21262d"/>
<text x="57" y="191.36565420560748" text-anchor="end" fill="#7d8590" font-size="11">0.25ms</text>
<line x1="65" y1="164.73130841121497" x2="770" y2="164.73130841121497" stroke="#21262d"/>
<text x="57" y="168.73130841121497" text-anchor="end" fill="#7d8590" font-size="11">0.50ms</text>
<line x1="65" y1="142.09696261682245" x2="770" y2="142.09696261682245" stroke="#21262d"/>
<text x="57" y="146.09696261682245" text-anchor="end" fill="#7d8590" font-size="11">0.75ms</text>
<line x1="65" y1="119.46261682242992" x2="770" y2="119.46261682242992" stroke="#21262d"/>
<text x="57" y="123.46261682242992" text-anchor="end" fill="#7d8590" font-size="11">1.00ms</text>
<text x="14" y="132.5" text-anchor="middle" fill="#7d8590" font-size="11" transform="rotate(-90 14 132.5)">Jitter (ms)</text>
<rect x="100.25" y="156.58294392523365" width="70.5" height="53.41705607476635" fill="#a78bfa" opacity="0.8" rx="3"/>
<text x="135.5" y="150.58294392523365" text-anchor="middle" fill="#c4b5fd" font-size="10" font-weight="500">0.59ms</text>
<text x="135.5" y="230" text-anchor="middle" fill="#c9d1d9" font-size="12" font-weight="500">64B</text>
<rect x="117.5" y="238" width="36" height="18" fill="#22c55e" opacity="0.2" rx="9"/>
<text x="135.5" y="251" text-anchor="middle" fill="#22c55e" font-size="10" font-weight="600">0%</text>
<rect x="241.25" y="180.12266355140187" width="70.5" height="29.87733644859813" fill="#a78bfa" opacity="0.8" rx="3"/>
<text x="276.5" y="174.12266355140187" text-anchor="middle" fill="#c4b5fd" font-size="10" font-weight="500">0.33ms</text>
<text x="276.5" y="230" text-anchor="middle" fill="#c9d1d9" font-size="12" font-weight="500">256B</text>
<rect x="258.5" y="238" width="36" height="18" fill="#22c55e" opacity="0.2" rx="9"/>
<text x="276.5" y="251" text-anchor="middle" fill="#22c55e" font-size="10" font-weight="600">0%</text>
<rect x="382.25" y="113.125" width="70.5" height="96.875" fill="#a78bfa" opacity="0.8" rx="3"/>
<text x="417.5" y="107.125" text-anchor="middle" fill="#c4b5fd" font-size="10" font-weight="500">1.07ms</text>
<text x="417.5" y="230" text-anchor="middle" fill="#c9d1d9" font-size="12" font-weight="500">512B</text>
<rect x="399.5" y="238" width="36" height="18" fill="#22c55e" opacity="0.2" rx="9"/>
<text x="417.5" y="251" text-anchor="middle" fill="#22c55e" font-size="10" font-weight="600">0%</text>
<rect x="523.25" y="159.29906542056074" width="70.5" height="50.70093457943926" fill="#a78bfa" opacity="0.8" rx="3"/>
<text x="558.5" y="153.29906542056074" text-anchor="middle" fill="#c4b5fd" font-size="10" font-weight="500">0.56ms</text>
<text x="558.5" y="230" text-anchor="middle" fill="#c9d1d9" font-size="12" font-weight="500">1024B</text>
<rect x="540.5" y="238" width="36" height="18" fill="#22c55e" opacity="0.2" rx="9"/>
<text x="558.5" y="251" text-anchor="middle" fill="#22c55e" font-size="10" font-weight="600">0%</text>
<rect x="664.25" y="178.3119158878505" width="70.5" height="31.68808411214951" fill="#a78bfa" opacity="0.8" rx="3"/>
<text x="699.5" y="172.3119158878505" text-anchor="middle" fill="#c4b5fd" font-size="10" font-weight="500">0.35ms</text>
<text x="699.5" y="230" text-anchor="middle" fill="#c9d1d9" font-size="12" font-weight="500">1380B</text>
<rect x="681.5" y="238" width="36" height="18" fill="#22c55e" opacity="0.2" rx="9"/>
<text x="699.5" y="251" text-anchor="middle" fill="#22c55e" font-size="10" font-weight="600">0%</text>
<rect x="320.0" y="258" width="10" height="10" fill="#a78bfa" opacity="0.8" rx="2"/>
<text x="334.0" y="267" fill="#c9d1d9" font-size="11">Jitter (stddev)</text>
<text x="440.0" y="267" fill="#7d8590" font-size="11">Badges = packet loss</text>
</svg>