<svg xmlns="http://www.w3.org/2000/svg" viewBox="0 0 800 280" font-family="system-ui,-apple-system,sans-serif">
<rect width="800" height="280" fill="#0d1117" rx="12"/>
<text x="400.0" y="28" text-anchor="middle" fill="#e6edf3" font-size="16" font-weight="600">Jitter &amp; Packet Loss</text>
<text x="400.0" y="46" text-anchor="middle" fill="#7d8590" font-size="11">Standard deviation of RTT | Loss rate per packet size</text>
<line x1="65" y1="210.0" x2="770" y2="210.0" stroke="#21262d"/>
<text x="57" y="214.0" text-anchor="end" fill="#7d8590" font-size="11">0.00ms</text>
<line x1="65" y1="180.82078313253012" x2="770" y2="180.82078313253012" stroke="#21262d"/>
<text x="57" y="184.82078313253012" text-anchor="end" fill="#7d8590" font-size="11">0.25ms</text>
<line x1="65" y1="151.64156626506025" x2="770" y2="151.64156626506025" stroke="#21262d"/>
<text x="57" y="155.64156626506025" text-anchor="end" fill="#7d8590" font-size="11">0.50ms</text>
<line x1="65" y1="122.46234939759037" x2="770" y2="122.46234939759037" stroke="#21262d"/>
<text x="57" y="126.46234939759037" text-anchor="end" fill="#7d8590" font-size="11">0.75ms</text>
<line x1="65" y1="93.2831325301205" x2="770" y2="93.2831325301205" stroke="#21262d"/>
<text x="57" y="97.2831325301205" text-anchor="end" fill="#7d8590" font-size="11">1.00ms</text>
<text x="14" y="132.5" text-anchor="middle" fill="#7d8590" font-size="11" transform="rotate(-90 14 132.5)">Jitter (ms)</text>
<rect x="100.25" y="121.29518072289156" width="70.5" height="88.70481927710844" fill="#a78bfa" opacity="0.8" rx="3"/>
<text x="135.5" y="115.29518072289156" text-anchor="middle" fill="#c4b5fd" font-size="10" font-weight="500">0.76ms</text>
<text x="135.5" y="230" text-anchor="middle" fill="#c9d1d9" font-size="12" font-weight="500">64B</text>
<rect x="117.5" y="238" width="36" height="18" fill="#22c55e" opacity="0.2" rx="9"/>
<text x="135.5" y="251" text-anchor="middle" fill="#22c55e" font-size="10" font-weight="600">0%</text>
<rect x="241.25" y="128.29819277108436" width="70.5" height="81.70180722891564" fill="#a78bfa" opacity="0.8" rx="3"/>
<text x="276.5" y="122.29819277108436" text-anchor="middle" fill="#c4b5fd" font-size="10" font-weight="500">0.70ms</text>
<text x="276.5" y="230" text-anchor="middle" fill="#c9d1d9" font-size="12" font-weight="500">256B</text>
<rect x="258.5" y="238" width="36" height="18" fill="#22c55e" opacity="0.2" rx="9"/>
<text x="276.5" y="251" text-anchor="middle" fill="#22c55e" font-size="10" font-weight="600">0%</text>
<rect x="382.25" y="113.12500000000001" width="70.5" height="96.87499999999999" fill="#a78bfa" opacity="0.8" rx="3"/>
<text x="417.5" y="107.12500000000001" text-anchor="middle" fill="#c4b5fd" font-size="10" font-weight="500">0.83ms</text>
<text x="417.5" y="230" text-anchor="middle" fill="#c9d1d9" font-size="12" font-weight="500">512B</text>
<rect x="399.5" y="238" width="36" height="18" fill="#22c55e" opacity="0.2" rx="9"/>
<text x="417.5" y="251" text-anchor="middle" fill="#22c55e" font-size="10" font-weight="600">0%</text>
<rect x="523.25" y="149.30722891566265" width="70.5" height="60.69277108433735" fill="#a78bfa" opacity="0.8" rx="3"/>
<text x="558.5" y="143.30722891566265" text-anchor="middle" fill="#c4b5fd" font-size="10" font-weight="500">0.52ms</text>
<text x="558.5" y="230" text-anchor="middle" fill="#c9d1d9" font-size="12" font-weight="500">1024B</text>
<rect x="540.5" y="238" width="36" height="18" fill="#22c55e" opacity="0.2" rx="9"/>
<text x="558.5" y="251" text-anchor="middle" fill="#22c55e" font-size="10" font-weight="600">0%</text>
<rect x="664.25" y="138.80271084337352" width="70.5" height="71.19728915662648" fill="#a78bfa" opacity="0.8" rx="3"/>
<text x="699.5" y="132.80271084337352" text-anchor="middle" fill="#c4b5fd" font-size="10" font-weight="500">0.61ms</text>
<text x="699.5" y="230" text-anchor="middle" fill="#c9d1d9" font-size="12" font-weight="500">1380B</text>
<rect x="681.5" y="238" width="36" height="18" fill="#f59e0b" opacity="0.2" rx="9"/>
<text x="699.5" y="251" text-anchor="middle" fill="#f59e0b" font-size="10" font-weight="600">3.0%</text>
<rect x="320.0" y="258" width="10" height="10" fill="#a78bfa" opacity="0.8" rx="2"/>
<text x="334.0" y="267" fill="#c9d1d9" font-size="11">Jitter (stddev)</text>
<text x="440.0" y="267" fill="#7d8590" font-size="11">Badges = packet loss</text>
</svg>