<svg xmlns="http://www.w3.org/2000/svg" viewBox="0 0 800 420" font-family="system-ui,-apple-system,sans-serif">
<rect width="800" height="420" fill="#0d1117" rx="12"/>
<text x="400.0" y="28" text-anchor="middle" fill="#e6edf3" font-size="16" font-weight="600">UDP Round-Trip Latency by Packet Size</text>
<text x="400.0" y="48" text-anchor="middle" fill="#7d8590" font-size="11">OVH VPS (Gravelines) ↔ Home Server (Paris) via WireGuard | 200 packets/size</text>
<line x1="65" y1="340.0" x2="770" y2="340.0" stroke="#21262d" stroke-width="1"/>
<text x="57" y="344.0" text-anchor="end" fill="#7d8590" font-size="11">0ms</text>
<line x1="65" y1="280.95110892411515" x2="770" y2="280.95110892411515" stroke="#21262d" stroke-width="1"/>
<text x="57" y="284.95110892411515" text-anchor="end" fill="#7d8590" font-size="11">3ms</text>
<line x1="65" y1="221.9022178482303" x2="770" y2="221.9022178482303" stroke="#21262d" stroke-width="1"/>
<text x="57" y="225.9022178482303" text-anchor="end" fill="#7d8590" font-size="11">6ms</text>
<line x1="65" y1="162.8533267723454" x2="770" y2="162.8533267723454" stroke="#21262d" stroke-width="1"/>
<text x="57" y="166.8533267723454" text-anchor="end" fill="#7d8590" font-size="11">9ms</text>
<line x1="65" y1="103.80443569646056" x2="770" y2="103.80443569646056" stroke="#21262d" stroke-width="1"/>
<text x="57" y="107.80443569646056" text-anchor="end" fill="#7d8590" font-size="11">12ms</text>
<text x="14" y="200.0" text-anchor="middle" fill="#7d8590" font-size="11" transform="rotate(-90 14 200.0)">Latency (ms)</text>
<rect x="86.15" y="181.15848300586973" width="22.674999999999997" height="158.84151699413027" fill="#3b82f6" opacity="0.85" rx="3" ry="3"/>
<text x="135.5" y="175.15848300586973" text-anchor="middle" fill="#e6edf3" font-size="10" font-weight="500">8.1ms</text>
<rect x="110.825" y="183.32360901198552" width="22.674999999999997" height="156.67639098801448" fill="#22c55e" opacity="0.85" rx="3" ry="3"/>
<rect x="135.5" y="145.53231872341917" width="22.674999999999997" height="194.46768127658083" fill="#f59e0b" opacity="0.85" rx="3" ry="3"/>
<rect x="160.175" y="96.52173913043475" width="22.674999999999997" height="243.47826086956525" fill="#ef4444" opacity="0.85" rx="3" ry="3"/>
<text x="135.5" y="360" text-anchor="middle" fill="#c9d1d9" font-size="12" font-weight="500">64B</text>
<rect x="227.15" y="182.1426311904678" width="22.674999999999997" height="157.8573688095322" fill="#3b82f6" opacity="0.85" rx="3" ry="3"/>
<text x="276.5" y="176.1426311904678" text-anchor="middle" fill="#e6edf3" font-size="10" font-weight="500">8.0ms</text>
<rect x="251.825" y="181.55214227970896" width="22.674999999999997" height="158.44785772029104" fill="#22c55e" opacity="0.85" rx="3" ry="3"/>
<rect x="276.5" y="166.00260096305928" width="22.674999999999997" height="173.99739903694072" fill="#f59e0b" opacity="0.85" rx="3" ry="3"/>
<rect x="301.175" y="147.30378545569576" width="22.674999999999997" height="192.69621454430424" fill="#ef4444" opacity="0.85" rx="3" ry="3"/>
<text x="276.5" y="360" text-anchor="middle" fill="#c9d1d9" font-size="12" font-weight="500">256B</text>
<rect x="368.15" y="180.9616533689501" width="22.674999999999997" height="159.0383466310499" fill="#3b82f6" opacity="0.85" rx="3" ry="3"/>
<text x="417.5" y="174.9616533689501" text-anchor="middle" fill="#e6edf3" font-size="10" font-weight="500">8.1ms</text>
<rect x="392.825" y="181.9458015535482" width="22.674999999999997" height="158.0541984464518" fill="#22c55e" opacity="0.85" rx="3" ry="3"/>
<rect x="417.5" y="168.16772696917505" width="22.674999999999997" height="171.83227303082495" fill="#f59e0b" opacity="0.85" rx="3" ry="3"/>
<rect x="442.17499999999995" y="111.08713226248634" width="22.674999999999997" height="228.91286773751366" fill="#ef4444" opacity="0.85" rx="3" ry="3"/>
<text x="417.5" y="360" text-anchor="middle" fill="#c9d1d9" font-size="12" font-weight="500">512B</text>
<rect x="509.15" y="182.1426311904678" width="22.674999999999997" height="157.8573688095322" fill="#3b82f6" opacity="0.85" rx="3" ry="3"/>
<text x="558.5" y="176.1426311904678" text-anchor="middle" fill="#e6edf3" font-size="10" font-weight="500">8.0ms</text>
<rect x="533.8249999999999" y="183.32360901198552" width="22.674999999999997" height="156.67639098801448" fill="#22c55e" opacity="0.85" rx="3" ry="3"/>
<rect x="558.5" y="168.75821587993394" width="22.674999999999997" height="171.24178412006606" fill="#f59e0b" opacity="0.85" rx="3" ry="3"/>
<rect x="583.175" y="110.89030262556673" width="22.674999999999997" height="229.10969737443327" fill="#ef4444" opacity="0.85" rx="3" ry="3"/>
<text x="558.5" y="360" text-anchor="middle" fill="#c9d1d9" font-size="12" font-weight="500">1024B</text>
<rect x="650.15" y="180.9616533689501" width="22.674999999999997" height="159.0383466310499" fill="#3b82f6" opacity="0.85" rx="3" ry="3"/>
<text x="699.5" y="174.9616533689501" text-anchor="middle" fill="#e6edf3" font-size="10" font-weight="500">8.1ms</text>
<rect x="674.8249999999999" y="180.3711644581913" width="22.674999999999997" height="159.6288355418087" fill="#22c55e" opacity="0.85" rx="3" ry="3"/>
<rect x="699.5" y="168.56138624301428" width="22.674999999999997" height="171.43861375698572" fill="#f59e0b" opacity="0.85" rx="3" ry="3"/>
<rect x="724.175" y="141.00523707426802" width="22.674999999999997" height="198.99476292573198" fill="#ef4444" opacity="0.85" rx="3" ry="3"/>
<text x="699.5" y="360" text-anchor="middle" fill="#c9d1d9" font-size="12" font-weight="500">1380B</text>
<rect x="240.0" y="387" width="12" height="12" fill="#3b82f6" opacity="0.85" rx="2"/>
<text x="256.0" y="397" fill="#c9d1d9" font-size="11">Avg</text>
<rect x="320.0" y="387" width="12" height="12" fill="#22c55e" opacity="0.85" rx="2"/>
<text x="336.0" y="397" fill="#c9d1d9" font-size="11">P50</text>
<rect x="400.0" y="387" width="12" height="12" fill="#f59e0b" opacity="0.85" rx="2"/>
<text x="416.0" y="397" fill="#c9d1d9" font-size="11">P95</text>
<rect x="480.0" y="387" width="12" height="12" fill="#ef4444" opacity="0.85" rx="2"/>
<text x="496.0" y="397" fill="#c9d1d9" font-size="11">P99</text>
<line x1="65" y1="190.4094759410917" x2="770" y2="190.4094759410917" stroke="#8b5cf6" stroke-width="1.5" stroke-dasharray="6 4"/>
<text x="766" y="184.4094759410917" text-anchor="end" fill="#8b5cf6" font-size="10">ICMP baseline 7.6ms</text>
</svg>